#!OML:ASF F:\VICON\USERDATA\INSTALL\rory3\rory3.ASF
:FULLY-SPECIFIED
:DEGREES
187
root 6.66584 15.9347 -35.5307 21.1254 -19.8716 -0.511448
lowerback -15.2662 1.41536 -3.06081
upperback -7.06223 2.2328 -0.696367
thorax 0.98392 1.14404 1.34601
lowerneck -14.82 -2.64155 -0.887902
upperneck 42.4964 -5.87223 3.50617
head 18.7792 -2.12067 0.644626
rclavicle 5.55432e-015 -3.18055e-015
rhumerus -38.7934 -13.4089 -75.279
rradius 11.8221
rwrist 12.0339
rhand 0.547376 14.7246
rfingers 7.12502
rthumb 26.1146 -13.4998
lclavicle 5.55432e-015 -3.18055e-015
lhumerus -42.4626 11.7631 74.2992
lradius 24.0477
lwrist -5.47964
lhand 0.884417 16.6548
lfingers 7.12502
lthumb 26.4372 44.8311
rfemur -30.7995 -19.7649 29.9232
rtibia 61.3176
rfoot 25.5766 -33.7655
rtoes 37.7937
lfemur -40.5553 1.18663 -31.1046
ltibia 43.3539
lfoot -39.6104 27.2623
ltoes 5.26369
188
root 6.66829 15.9433 -35.515 21.0104 -20.2039 -0.702017
lowerback -15.5589 1.52513 -2.71175
upperback -6.8602 2.34518 -0.73029
thorax 1.36454 1.18482 1.14593
lowerneck -14.2511 -2.64245 -0.968021
upperneck 42.0632 -5.87929 3.67549
head 18.3668 -2.13264 0.742475
rclavicle 2.51371e-014 -7.95139e-015
rhumerus -38.6362 -13.0633 -75.7405
rradius 11.9182
rwrist 11.7925
rhand 0.506378 14.0353
rfingers 7.12502
rthumb 26.0753 -14.1949
lclavicle 2.51371e-014 -7.95139e-015
lhumerus -42.4262 11.5598 74.4624
lradius 24.161
lwrist -5.24534
lhand 0.546721 16.8223
lfingers 7.12502
lthumb 26.1139 45.0468
rfemur -30.3442 -19.6952 29.8389
rtibia 61.1451
rfoot 26.2954 -33.9522
rtoes 36.3108
lfemur -40.3279 1.74308 -31.3338
ltibia 43.696
lfoot -39.2883 28.0915
ltoes 2.03476
189
root 6.66498 15.9345 -35.538 21.4295 -20.0263 -0.51584
lowerback -16.0685 1.32051 -2.91086
upperback -6.66085 2.1284 -0.774662
thorax 1.84575 1.07041 1.19594
lowerneck -14.6869 -2.62526 -0.920901
upperneck 41.7984 -5.85631 3.69798
head 18.3229 -2.10725 0.738975
rclavicle -1.55301e-017 2.78299e-015
rhumerus -37.977 -13.898 -75.594
rradius 11.6757
rwrist 12.8364
rhand 0.471424 13.7734
rfingers 7.12502
rthumb 26.0418 -14.4617
lclavicle -1.55301e-017 2.78299e-015
lhumerus -41.8472 11.7646 74.5047
lradius 24.232
lwrist -5.22407
lhand 0.594166 16.8013
lfingers 7.12502
lthumb 26.1594 45.019
rfemur -31.0212 -19.7479 30.0262
rtibia 61.2403
rfoot 27.4783 -34.4717
rtoes 37.6585
lfemur -41.0826 0.801359 -30.8702
ltibia 43.599
lfoot -40.4606 26.5371
ltoes 7.30622
190
root 6.66921 15.9572 -35.5358 22.6507 -21.213 -1.36824
lowerback -17.4927 1.75494 -2.01483
upperback -6.89538 2.58381 -0.699754
thorax 2.36494 1.27421 0.892269
lowerneck -13.5143 -2.45499 -1.15345
upperneck 41.4098 -5.53799 3.85165
head 17.7761 -2.02738 0.925389
rclavicle -5.84427e-014 -2.66371e-014
rhumerus -38.1736 -13.6622 -75.6721
rradius 11.6423
rwrist 13.0873
rhand 0.395245 13.8628
rfingers 7.12502
rthumb 25.9689 -14.383
lclavicle -5.84427e-014 -2.66371e-014
lhumerus -42.2923 11.6945 74.527
lradius 24.465
lwrist -5.1662
lhand 0.57359 16.8114
lfingers 7.12502
lthumb 26.1397 45.032
rfemur -31.9558 -18.5459 30.6678
rtibia 61.1048
rfoot 26.8819 -33.8079
rtoes 36.4696
lfemur -42.0718 3.49466 -31.7351
ltibia 44.0534
lfoot -38.3458 28.1494
ltoes -0.224221
191
root 6.66952 15.9426 -35.5283 21.4178 -20.2146 -0.65546
lowerback -16.0184 1.23781 -2.77623
upperback -6.7994 1.9851 -0.558942
thorax 1.67563 1.00238 1.31782
lowerneck -13.9868 -2.4544 -1.18145
upperneck 41.7353 -5.44588 3.59011
head 18.0783 -2.01726 0.82333
rclavicle -3.62891e-014 1.66979e-014
rhumerus -38.2862 -12.9667 -75.7504
rradius 11.7505
rwrist 12.5846
rhand 0.618281 14.0541
rfingers 7.12502
rthumb 26.1824 -14.1602
lclavicle -3.62891e-014 1.66979e-014
lhumerus -42.5212 11.7194 74.8538
lradius 24.3067
lwrist -5.45915
lhand 0.479374 16.6742
lfingers 7.12502
lthumb 26.0494 44.9082
rfemur -30.7435 -19.894 29.9993
rtibia 61.11
rfoot 25.7766 -33.5607
rtoes 37.4705
lfemur -41.0469 0.211454 -30.5872
ltibia 43.799
lfoot -41.2447 26.8126
ltoes 8.50102
192
root 6.67316 15.9642 -35.5162 21.7812 -21.116 -1.00094
lowerback -16.0499 1.62013 -2.58023
upperback -6.98374 2.4539 -0.587521
thorax 1.48775 1.23544 1.25265
lowerneck -14.2005 -2.49339 -0.977438
upperneck 41.8961 -5.5161 3.41328
head 18.219 -2.03093 0.688626
rclavicle 2.06371e-014 -2.18663e-014
rhumerus -38.4654 -13.2028 -75.6167
rradius 11.6756
rwrist 12.94
rhand 0.546906 14.2074
rfingers 7.12502
rthumb 26.1141 -14.017
lclavicle 2.06371e-014 -2.18663e-014
lhumerus -42.5675 11.3006 75.1115
lradius 24.137
lwrist -5.4044
lhand 0.290159 16.6119
lfingers 7.12502
lthumb 25.8683 44.8724
rfemur -30.8667 -19.163 29.9999
rtibia 60.9756
rfoot 26.3515 -33.5357
rtoes 37.3626
lfemur -41.1697 3.00304 -31.871
ltibia 44.1667
lfoot -38.7562 28.6575
ltoes -0.751189
193
root 6.6735 15.964 -35.506 21.1995 -20.6655 -0.623179
lowerback -15.5645 1.45815 -2.88363
upperback -6.73497 2.28306 -0.692997
thorax 1.49293 1.15429 1.27443
lowerneck -14.8138 -2.53192 -0.636097
upperneck 41.9621 -5.64236 3.27091
head 18.4113 -2.03152 0.526761
rclavicle -2.43822e-015 -1.51076e-014
rhumerus -38.2562 -14.0485 -75.3481
rradius 11.4463
rwrist 13.7205
rhand 0.393599 14.5155
rfingers 7.12502
rthumb 25.9673 -13.7306
lclavicle -2.43822e-015 -1.51076e-014
lhumerus -42.2239 10.8367 75.4588
lradius 24.2556
lwrist -5.19635
lhand 0.510369 16.75
lfingers 7.12502
lthumb 26.0791 44.9796
rfemur -30.2282 -19.9235 29.6116
rtibia 60.9068
rfoot 27.0715 -32.7021
rtoes 36.0348
lfemur -40.4215 2.82288 -32.0956
ltibia 43.9203
lfoot -38.5323 28.4846
ltoes -0.757895
194
root 6.67647 15.964 -35.5108 21.6191 -21.0463 -0.694314
lowerback -15.8272 1.43675 -2.87733
upperback -7.14082 2.24234 -0.569619
thorax 1.19865 1.14102 1.39298
lowerneck -13.767 -2.4168 -0.983702
upperneck 41.9009 -5.3569 3.31926
head 18.0921 -1.99175 0.681962
rclavicle -3.04832e-014 -3.97569e-015
rhumerus -38.8004 -13.2444 -75.4064
rradius 11.516
rwrist 13.39
rhand 0.402784 14.606
rfingers 7.12502
rthumb 25.9761 -13.6388
lclavicle -3.04832e-014 -3.97569e-015
lhumerus -43.0449 10.9484 75.4269
lradius 24.4031
lwrist -5.18002
lhand 0.764828 16.6012
lfingers 7.12502
lthumb 26.3227 44.7947
rfemur -30.7282 -19.671 29.7204
rtibia 60.8736
rfoot 28.3523 -31.7744
rtoes 34.1379
lfemur -40.9738 2.77958 -32.0953
ltibia 44.0707
lfoot -38.7824 28.6483
ltoes -0.447207
195
root 6.66859 15.9673 -35.5175 20.9486 -20.4286 -0.232327
lowerback -14.9124 1.12661 -3.3934
upperback -7.24288 1.87052 -0.54611
thorax 0.603375 0.979266 1.62139
lowerneck -13.3893 -2.44247 -1.09968
upperneck 41.9553 -5.36675 3.32178
head 18.0272 -2.02206 0.708012
rclavicle -4.30369e-014 -1.47101e-014
rhumerus -39.1889 -13.1369 -75.2723
rradius 11.4845
rwrist 13.4325
rhand 0.432244 14.4397
rfingers 7.12502
rthumb 26.0043 -13.8009
lclavicle -4.30369e-014 -1.47101e-014
lhumerus -43.3483 10.7321 75.5468
lradius 24.2246
lwrist -5.38991
lhand 0.739566 16.432
lfingers 7.12502
lthumb 26.2986 44.629
rfemur -30.0877 -20.454 29.3933
rtibia 60.8102
rfoot 27.9162 -31.7665
rtoes 34.2673
lfemur -40.2981 2.66319 -32.3315
ltibia 43.9738
lfoot -38.549 28.1595
ltoes -0.197076
